HIERARCHY
ROOT Hips
{
	OFFSET 0.00000 0.00000 0.00000
	CHANNELS 6 Xposition Yposition Zposition Zrotation Yrotation Xrotation 
	JOINT LHipJoint
	{
		OFFSET 0 0 0
		CHANNELS 3 Zrotation Yrotation Xrotation
		JOINT LeftHip
		{
			OFFSET 1.85742 -1.74412 1.01653
			CHANNELS 3 Zrotation Yrotation Xrotation
			JOINT LeftKnee
			{
				OFFSET 2.54803 -7.00067 0.00000
				CHANNELS 3 Zrotation Yrotation Xrotation
				JOINT LeftAnkle
				{
					OFFSET 2.51202 -6.90173 0.00000
					CHANNELS 3 Zrotation Yrotation Xrotation
					JOINT LeftToe
					{
						OFFSET 0.17547 -0.48209 1.64281
						CHANNELS 3 Zrotation Yrotation Xrotation
						End Site
						{
							OFFSET 0.00000 -0.00000 0.86587
						}
					}
				}
			}
		}
	}
	JOINT RHipJoint
	{
		OFFSET 0 0 0
		CHANNELS 3 Zrotation Yrotation Xrotation
		JOINT RightHip
		{
			OFFSET -1.95533 -1.74413 1.01654
			CHANNELS 3 Zrotation Yrotation Xrotation
			JOINT RightKnee
			{
				OFFSET -2.49465 -6.85400 0.00000
				CHANNELS 3 Zrotation Yrotation Xrotation
				JOINT RightAnkle
				{
					OFFSET -2.54783 -7.00010 0.00000
					CHANNELS 3 Zrotation Yrotation Xrotation
					JOINT RightToe
					{
						OFFSET -0.18513 -0.50864 1.69288
						CHANNELS 3 Zrotation Yrotation Xrotation
						End Site
						{
							OFFSET -0.00000 -0.00000 0.89242
						}
					}
				}
			}
		}
	}
	JOINT lowerback
	{
		OFFSET 0 0 0
		CHANNELS 3 Zrotation Yrotation Xrotation
		JOINT Chest
		{
			OFFSET 0.02173 2.16290 -0.15998
			CHANNELS 3 Zrotation Yrotation Xrotation
			JOINT Chest2
			{
				OFFSET 0.00940 2.17323 -0.00467
				CHANNELS 3 Zrotation Yrotation Xrotation
				JOINT lowerneck
				{
					OFFSET 0 0 0
					CHANNELS 3 Zrotation Yrotation Xrotation
					JOINT Neck
					{
						OFFSET 0.01475 1.85823 0.31113
						CHANNELS 3 Zrotation Yrotation Xrotation
						JOINT Head
						{
							OFFSET 0.01902 1.88783 -0.37187
							CHANNELS 3 Zrotation Yrotation Xrotation
							End Site
							{
								OFFSET 0.00489 1.93211 -0.16169
							}
						}
					}
				}
				JOINT LeftCollar
				{
					OFFSET 0 0 0
					CHANNELS 3 Zrotation Yrotation Xrotation
					JOINT LeftShoulder
					{
						OFFSET 3.34199 1.32384 -0.07862
CHANNELS 3 Zrotation Xrotation Yrotation
						JOINT LeftElbow
						{
OFFSET 0 -5.279500 0.000000
CHANNELS 3 Zrotation Xrotation Yrotation
							JOINT LeftWrist
							{
OFFSET 0 -3.535040 0.000000
CHANNELS 3 Zrotation Xrotation Yrotation
								JOINT lhand
								{
									OFFSET 0 0 0
CHANNELS 3 Zrotation Xrotation Yrotation
									JOINT LFingers
									{
OFFSET 0 -0.667950 0.000000
CHANNELS 3 Zrotation Xrotation Yrotation
										End Site
										{
OFFSET 0 -0.538520 0.000000
										}
									}
								}
								JOINT LThumb
								{
OFFSET 0 0.000000 0.000000
CHANNELS 3 Zrotation Xrotation Yrotation
									End Site
									{
OFFSET 0 -0.546740 0.546740
									}
								}
							}
						}
					}
				}
				JOINT RightCollar
				{
					OFFSET 0 0 0
					CHANNELS 3 Zrotation Yrotation Xrotation
					JOINT RightShoulder
					{
						OFFSET -3.16149 1.45719 -0.50507
CHANNELS 3 Zrotation Xrotation Yrotation
						JOINT RightElbow
						{
OFFSET 0 -5.250350 0.000000
CHANNELS 3 Zrotation Xrotation Yrotation
							JOINT RightWrist
							{
OFFSET 0 -3.588840 0.000000
CHANNELS 3 Zrotation Xrotation Yrotation
								JOINT rhand
								{
									OFFSET 0 0 0
CHANNELS 3 Zrotation Xrotation Yrotation
									JOINT RFingers
									{
OFFSET 0 -0.779240 0.000000
CHANNELS 3 Zrotation Xrotation Yrotation
										End Site
										{
OFFSET 0 -0.628240 0.000000
										}
									}
								}
								JOINT RThumb
								{
OFFSET 0 0.000000 0.000000
CHANNELS 3 Zrotation Xrotation Yrotation
									End Site
									{
OFFSET 0 -0.637830 0.637830
									}
								}
							}
						}
					}
				}
			}
		}
	}
}
MOTION
Frames: 7
Frame Time: .0083333
4.7765 17.5885 1.6655 -149.8490 88.4329 -144.3600 0.0000 0.0000 0.0000 -17.3293 -23.8656 -7.2775 2.0174 8.9022 25.4898 0.6276 8.4231 -20.3247 2.4463 -9.7395 -28.1373 0.0000 0.0000 0.0000 22.4662 10.8609 -2.5054 -1.0135 -6.4052 17.9646 1.7792 -25.8210 -23.0860 -0.1609 2.5843 -7.1235 -0.6553 1.2512 1.2577 1.1301 1.7029 -2.2747 1.4603 0.8879 -3.0944 0.4982 0.4948 -23.3894 -0.9696 1.3474 30.4049 -0.1799 0.6680 14.3848 -0.0000 0.0000 0.0000 4.095 6.9869 -31.298 18.1825 -28.3902 4.6357 36.424 -4.0845 -52.9521 0.0 0.0 0.0 -7.1250 0.0 0.0 -72.1207 85.9814 68.2467 -0.0000 0.0000 0.0000 -8.5229 7.8212 24.4672 -19.0876 -29.5274 -5.0739 -18.3577 -3.8184 -19.4157 0.0 0.0 0.0 7.1250 0.0 -0.0 6.4188 9.7085 5.2785
4.7734 17.5890 1.6688 -151.8950 88.3821 -146.4300 0.0000 0.0000 0.0000 -17.3377 -23.7998 -7.2862 2.0108 8.8886 25.4475 0.6325 8.2972 -20.2633 2.4382 -9.7246 -28.0893 0.0000 0.0000 0.0000 22.4680 10.9414 -2.4741 -1.0205 -6.4267 18.0275 1.7637 -25.8366 -23.3045 -0.1346 2.3650 -6.5156 -0.6939 1.2052 1.2500 1.1476 1.6405 -2.2562 1.5029 0.8576 -3.0706 0.3856 0.4862 -23.3485 -0.8095 1.3222 30.3708 -0.1005 0.6672 14.3582 -0.0000 0.0000 0.0000 4.0934 6.9817 -31.3625 18.3348 -28.5837 4.7083 36.4587 -4.0276 -53.1447 0.0 0.0 0.0 -7.1250 0.0 0.0 -74.9450 85.9833 71.0221 -0.0000 0.0000 0.0000 -8.5594 8.0692 24.5104 -19.1641 -29.6221 -5.1117 -18.179 -3.3312 -19.4932 0.0 0.0 0.0 7.1250 0.0 -0.0 6.5387 9.6514 5.3861
4.7720 17.5869 1.6739 -155.0660 88.3024 -149.6450 0.0000 0.0000 0.0000 -17.3795 -23.8098 -7.2665 2.0150 8.8972 25.4743 0.6387 8.2143 -20.2533 2.4731 -9.7889 -28.2958 0.0000 0.0000 0.0000 22.4820 11.0365 -2.3517 -1.0201 -6.4255 18.0240 1.7782 -25.9735 -23.5008 -0.1157 2.1926 -6.0383 -0.7134 1.1245 1.3300 1.1178 1.5312 -2.2865 1.4857 0.8036 -3.1432 0.3285 0.4837 -23.2569 -0.6556 1.2905 30.3841 -0.0342 0.6709 14.3421 -0.0000 -0.0000 0.0000 4.1224 7.0632 -31.3172 18.4855 -28.7744 4.7807 36.5869 -3.9496 -53.1728 0.0 0.0 0.0 -7.1250 0.0 0.0 -75.7417 86.0343 71.8568 -0.0000 -0.0000 0.0000 -8.4809 8.3872 24.561 -19.2292 -29.7025 -5.1439 -18.1829 -3.1658 -19.5918 0.0 0.0 0.0 7.1250 0.0 -0.0 6.5416 9.5492 5.4021
4.7713 17.5838 1.6795 -156.6970 88.2210 -151.3310 0.0000 0.0000 0.0000 -17.3841 -23.7848 -7.2427 2.0205 8.9086 25.5097 0.6457 8.1129 -20.2367 2.4730 -9.7887 -28.2951 0.0000 0.0000 0.0000 22.5397 11.0807 -2.2131 -1.0164 -6.4142 17.9910 1.8151 -26.1572 -23.5719 -0.1148 2.1844 -6.0155 -0.6078 1.0580 1.5295 1.0170 1.4431 -2.3770 1.3217 0.7570 -3.3410 0.4480 0.5002 -23.1821 -0.6027 1.2551 30.4644 -0.0393 0.6803 14.3615 0.0000 -0.0000 0.0000 4.2523 7.1738 -31.2299 18.6028 -28.9222 4.8373 36.4742 -4.0606 -53.1172 0.0 0.0 0.0 -7.1250 0.0 0.0 -74.6023 85.9923 70.6939 0.0000 -0.0000 0.0000 -8.3506 8.8459 24.8921 -19.3561 -29.8587 -5.2069 -18.1584 -3.3393 -19.4555 0.0 0.0 0.0 7.1250 0.0 -0.0 6.5500 9.6928 5.39
4.7685 17.5820 1.6808 -154.1470 88.1582 -148.8350 0.0000 0.0000 0.0000 -17.2782 -23.7421 -7.2190 2.0248 8.9175 25.5377 0.6513 8.0539 -20.2421 2.4644 -9.7728 -28.2441 0.0000 0.0000 0.0000 22.6755 11.0585 -2.1439 -1.0144 -6.4079 17.9726 1.8316 -26.2178 -23.5476 -0.1184 2.2183 -6.1094 -0.4033 1.0261 1.6734 0.9779 1.4064 -2.4205 1.1654 0.7336 -3.4600 0.5972 0.5199 -23.1516 -0.6174 1.2332 30.5212 -0.0746 0.6880 14.3810 -0.0000 0.0000 0.0000 4.3444 7.2087 -31.2616 18.7379 -29.0917 4.9027 36.2703 -4.222 -53.1836 0.0 0.0 0.0 -7.1250 0.0 0.0 -74.9270 85.9003 70.9222 -0.0000 0.0000 0.0000 -8.2983 9.1768 25.1775 -19.4162 -29.9326 -5.2369 -18.0493 -3.5522 -19.3332 0.0 0.0 0.0 7.1250 0.0 -0.0 6.6141 9.8326 5.4247
4.7642 17.5817 1.6809 -151.1510 88.1193 -145.8530 0.0000 0.0000 0.0000 -17.1632 -23.7768 -7.2144 2.0294 8.9270 25.5673 0.6500 8.1014 -20.2701 2.4913 -9.8221 -28.4024 0.0000 0.0000 0.0000 22.7869 11.0265 -2.1397 -1.0109 -6.3971 17.9410 1.8198 -26.1581 -23.5219 -0.1138 2.1752 -5.9902 -0.2742 1.0105 1.6664 1.0027 1.3909 -2.4165 1.1195 0.7229 -3.4491 0.5624 0.4928 -23.0794 -0.5215 1.1756 30.5220 -0.0406 0.6743 14.3641 0.0000 -0.0000 0.0000 4.3611 7.2077 -31.4172 18.9178 -29.3164 4.9905 36.3099 -4.3302 -53.2049 0.0 0.0 0.0 -7.1250 0.0 0.0 -75.3388 85.915 71.3418 0.0000 -0.0000 0.0000 -8.2635 9.334 25.0321 -19.3664 -29.8715 -5.2121 -17.7739 -3.3648 -19.4353 0.0 0.0 0.0 7.1250 0.0 -0.0 6.7978 9.7621 5.5873
4.7601 17.5828 1.6844 -153.1840 88.1686 -147.8410 0.0000 0.0000 0.0000 -17.2320 -23.9051 -7.2510 2.0357 8.9401 25.6081 0.6446 8.1991 -20.2996 2.5036 -9.8445 -28.4746 0.0000 0.0000 0.0000 22.6941 11.0425 -2.1660 -1.0030 -6.3729 17.8702 1.8110 -26.1219 -23.5243 -0.1050 2.0892 -5.7523 -0.4004 1.0026 1.5762 0.9956 1.3761 -2.4268 1.1851 0.7188 -3.4113 0.4114 0.4219 -23.0325 -0.3439 1.0744 30.5729 0.0388 0.6408 14.3735 0.0000 -0.0000 0.0000 4.3573 7.2347 -31.5725 19.1020 -29.5453 5.0811 36.5522 -4.3043 -53.1366 0.0 0.0 0.0 -7.1250 0.0 0.0 -75.1163 86.0235 71.2304 0.0000 -0.0000 0.0000 -8.2114 9.4491 24.6468 -19.2519 -29.7305 -5.1552 -17.5744 -3.0753 -19.6157 0.0 0.0 0.0 7.1250 0.0 -0.0 6.9362 9.6017 5.7253
